Motion_pl15
version=1
nRows=6
nColumns=43
inDegrees=yes
endheader
time	pelvis_tilt	pelvis_list	pelvis_rotation	pelvis_tx	pelvis_ty	pelvis_tz	hip_flexion_r	hip_adduction_r	hip_rotation_r	knee_angle_r	ankle_angle_r	subtalar_angle_r	mtp_angle_r	hip_flexion_l	hip_adduction_l	hip_rotation_l	knee_angle_l	ankle_angle_l	subtalar_angle_l	mtp_angle_l	lumbar_extension	lumbar_bending	lumbar_rotation	neck_flexion	neck_lateral_bending	neck_rotation	arm_flex_r	arm_add_r	arm_rot_r	elbow_flex_r	pro_sup_r	wrist_flex_r	wrist_dev_r	hand_finger_flex_r	arm_flex_l	arm_add_l	arm_rot_l	elbow_flex_l	pro_sup_l	wrist_flex_l	wrist_dev_l	hand_finger_flex_l
      1.22750000	     -2.86480416	     -0.38659466	     83.90915429	      0.00895146	      0.45428872	      0.50893492	     97.21592395	     -0.53273534	      2.11145795	   -135.80244513	     16.88006823	      6.57723959	     38.19631964	     91.92854351	    -15.95389204	     -0.82406493	   -135.94340730	     19.54697338	     11.98695862	     40.04874242	    -63.80568210	     -4.74123404	      1.30225470	     14.50778966	     -6.26028225	      1.08574560	     94.09861401	    -26.30784129	     34.23789991	     63.63739055	    115.67670715	    -13.05639150	      3.29969843	     33.79643260	     76.54620687	    -38.37322402	     19.10029756	     79.94025422	     98.10231939	    -16.73371597	     -2.48774255	     28.31584150
      1.23000000	     -2.86074419	     -0.30524202	     83.95900158	      0.00866311	      0.45333380	      0.50842533	     97.15333008	     -0.69975375	      2.10463045	   -135.96555977	     17.15247124	      6.75681360	     38.30620412	     91.97860167	    -15.91174893	     -0.82758017	   -136.15727266	     19.49522279	     11.94437754	     40.23679073	    -64.05937042	     -4.70004070	      1.36467631	     14.64280571	     -6.04579601	      1.02222780	     95.16430258	    -26.30008487	     35.17559904	     63.44639803	    114.85886504	    -13.28565989	      2.98237706	     33.00247117	     78.02979166	    -38.56714299	     20.56739764	     79.63942685	     97.65384183	    -17.34602353	     -2.56801936	     28.14323138
      1.23250000	     -2.91326455	     -0.48761217	     83.90752041	      0.00840403	      0.45172300	      0.50780001	     97.41320726	     -0.77680904	      2.05464125	   -136.13578081	     17.53332784	      6.64269000	     38.34886714	     92.31536353	    -15.94076746	     -0.86988131	   -136.39676422	     19.56073930	     11.87518631	     40.28339171	    -63.95526607	     -4.68133133	      1.37866814	     14.59449349	     -6.22433052	      0.98717854	     95.87871380	    -25.88337558	     35.42965780	     63.28111357	    114.84332305	    -13.21026109	      3.04589581	     32.86563821	     78.89280677	    -38.51851066	     20.99624758	     79.45788938	     97.68820145	    -17.26809396	     -2.50674510	     28.19602781
      1.23500000	     -2.90496647	     -0.59221828	     83.88928050	      0.00808463	      0.45036722	      0.50718508	     97.55948091	     -0.88940512	      1.95882425	   -136.29111709	     17.81849896	      6.57214588	     38.37132066	     92.56837189	    -15.92176783	     -0.87202493	   -136.62882046	     19.57751987	     11.75238583	     40.33255798	    -63.95010061	     -4.61485777	      1.43300602	     14.59022489	     -6.29951357	      0.94688881	     96.65281351	    -25.52951030	     35.78695919	     63.10467950	    114.86589411	    -13.15305633	      3.05586809	     32.69036309	     79.83412072	    -38.48997675	     21.54511396	     79.25782342	     97.74520715	    -17.20273530	     -2.46748735	     28.22419384
      1.23750000	     -2.88971945	     -0.66993443	     83.86424028	      0.00778133	      0.44912006	      0.50654631	     97.65702406	     -0.99337166	      1.84231321	   -136.43760927	     18.12425173	      6.47142978	     38.37994007	     92.76541847	    -15.89808561	     -0.88469588	   -136.84756635	     19.59874490	     11.59718896	     40.38331652	    -63.96724065	     -4.55345456	      1.50746667	     14.58364585	     -6.36928492	      0.88794727	     97.40127782	    -25.21197178	     36.15501401	     62.95229404	    114.90285879	    -13.12704139	      3.04346861	     32.49915124	     80.75858977	    -38.42622399	     22.08631535	     79.03517145	     97.78637636	    -17.16638722	     -2.44372752	     28.22847785
      1.24000000	     -2.87779090	     -0.74087412	     83.82634999	      0.00749105	      0.44793404	      0.50589397	     97.73233485	     -1.07938341	      1.71947078	   -136.57537080	     18.43090141	      6.34831840	     38.37238566	     92.93462894	    -15.88650719	     -0.90561920	   -137.05476035	     19.63694202	     11.42988917	     40.43417484	    -63.98320422	     -4.50453385	      1.58856021	     14.55798869	     -6.43858622	      0.81760079	     98.11986216	    -24.91020200	     36.51330610	     62.81588361	    114.96847874	    -13.11750341	      3.02644171	     32.31575389	     81.64595564	    -38.33160606	     22.59440799	     78.80267861	     97.81448039	    -17.12959443	     -2.43095496	     28.22475967
